<?xml version="1.0" encoding="UTF-8" standalone="no"?>
<!DOCTYPE svg PUBLIC "-//W3C//DTD SVG 1.1//EN" "http://www.w3.org/Graphics/SVG/1.1/DTD/svg11.dtd">
<svg version="1.1" xmlns="http://www.w3.org/2000/svg" xmlns:xlink="http://www.w3.org/1999/xlink" preserveAspectRatio="xMidYMid meet" viewBox="0 0 640 640" width="640" height="640"><defs><path d="M509.28 292.84C509.28 400.47 421.9 487.84 314.28 487.84C206.66 487.84 119.28 400.47 119.28 292.84C119.28 185.22 206.66 97.84 314.28 97.84C421.9 97.84 509.28 185.22 509.28 292.84Z" id="b22qnWk8ku"></path><path d="M503.53 292.73C503.53 397.6 418.39 482.73 313.53 482.73C208.66 482.73 123.53 397.6 123.53 292.73C123.53 187.87 208.66 102.73 313.53 102.73C418.39 102.73 503.53 187.87 503.53 292.73Z" id="bFTudV82q"></path><path d="" id="b2GLL3bsvL"></path><path d="" id="auPdRfRFl"></path><path d="M167.48 282.59L175.4 230.07L195.54 183.31L230.79 144.46L263.17 122.16L316.44 102.73" id="hcJ4G5ATh"></path><path d="M472.95 292.37C472.95 397.24 399.61 482.37 309.28 482.37C218.95 482.37 145.61 397.24 145.61 292.37C145.61 187.51 218.95 102.37 309.28 102.37C399.61 102.37 472.95 187.51 472.95 292.37Z" id="a6RO89tWkD"></path><path d="M404.96 292.73C404.96 396.41 362.09 480.58 309.28 480.58C256.47 480.58 213.6 396.41 213.6 292.73C213.6 189.06 256.47 104.89 309.28 104.89C362.09 104.89 404.96 189.06 404.96 292.73Z" id="b7jAoGez2"></path><path d="M501.43 292.92C502.62 292.92 503.59 293.88 503.6 295.08C503.6 295.51 503.6 294.64 503.6 295.08C503.6 296.27 502.64 297.24 501.45 297.24C425.88 297.51 201.34 298.3 125.77 298.56C124.58 298.57 123.61 297.6 123.6 296.41C123.6 295.98 123.6 296.84 123.6 296.41C123.6 295.22 124.56 294.25 125.75 294.24C201.32 293.98 425.86 293.19 501.43 292.92Z" id="e3TDxSwkHN"></path><path d="M461.83 407.84C462.93 407.84 463.81 408.73 463.81 409.82C463.81 410.29 463.81 409.71 463.81 410.18C463.81 411.27 462.93 412.16 461.83 412.16C402.37 412.16 225.97 412.16 166.52 412.16C165.42 412.16 164.53 411.27 164.53 410.18C164.53 409.71 164.53 410.29 164.53 409.82C164.53 408.73 165.42 407.84 166.52 407.84C225.97 407.84 402.37 407.84 461.83 407.84Z" id="d3IGfgv4t"></path><path d="M461.76 175.68C462.85 175.68 463.74 176.57 463.74 177.66C463.74 178.13 463.74 177.55 463.74 178.02C463.74 179.11 462.85 180 461.76 180C402.3 180 225.9 180 166.44 180C165.35 180 164.46 179.11 164.46 178.02C164.46 177.55 164.46 178.13 164.46 177.66C164.46 176.57 165.35 175.68 166.44 175.68C225.9 175.68 402.3 175.68 461.76 175.68Z" id="abaXxPD6y"></path><path d="M380 293.16C380 331.24 349.08 362.16 311 362.16C272.92 362.16 242 331.24 242 293.16C242 255.08 272.92 224.16 311 224.16C349.08 224.16 380 255.08 380 293.16Z" id="bkKDWLKZl"></path><path d="M356.29 167.67C356.29 193.41 334.9 214.32 308.56 214.32C282.22 214.32 260.83 193.41 260.83 167.67C260.83 141.92 282.22 121.02 308.56 121.02C334.9 121.02 356.29 141.92 356.29 167.67Z" id="eWLvXh0G7"></path><path d="M357.01 418.01C357.01 443.76 335.62 464.66 309.28 464.66C282.94 464.66 261.55 443.76 261.55 418.01C261.55 392.27 282.94 371.37 309.28 371.37C335.62 371.37 357.01 392.27 357.01 418.01Z" id="a1RoOaktOP"></path><path d="M336.55 409.46C336.55 424.93 323.81 437.48 308.13 437.48C292.45 437.48 279.71 424.93 279.71 409.46C279.71 394 292.45 381.44 308.13 381.44C323.81 381.44 336.55 394 336.55 409.46Z" id="e4M07aZOM"></path><path d="M290.37 420.19L308.72 400.12L327.07 420.19L320.06 452.66L297.38 452.66L290.37 420.19Z" id="a5TZbWZqU"></path><path d="M325.31 440.99C325.63 440.99 325.89 441.25 325.89 441.57C325.89 441.69 325.89 441.45 325.89 441.57C325.89 441.89 325.63 442.15 325.31 442.15C318.56 442.15 298.89 442.15 292.14 442.15C291.81 442.15 291.55 441.89 291.55 441.57C291.55 441.45 291.55 441.69 291.55 441.57C291.55 441.25 291.81 440.99 292.14 440.99C298.89 440.99 318.56 440.99 325.31 440.99Z" id="b56fswfCVA"></path><path d="M332.13 420.67C329.3 426.12 322.62 428.65 317.23 426.31C311.83 423.97 309.75 417.64 312.58 412.2C315.41 406.75 322.09 404.22 327.49 406.56C332.88 408.9 334.96 415.22 332.13 420.67Z" id="f2CBJ8rBPR"></path><path d="M284.05 420.55C286.88 426 293.56 428.53 298.95 426.19C304.35 423.85 306.43 417.53 303.6 412.08C300.77 406.63 294.09 404.1 288.69 406.44C283.3 408.78 281.21 415.1 284.05 420.55Z" id="d4MvzdnuVi"></path><path d="M312.8 426.65C312.48 428.55 310.31 429.91 307.95 429.66C305.6 429.42 303.94 427.67 304.26 425.76C304.58 423.86 306.75 422.5 309.11 422.75C311.46 422.99 313.12 424.74 312.8 426.65Z" id="g4EtzC9rG"></path><path d="M314.7 448.3C314.7 448.44 314.59 448.56 314.45 448.56C314.4 448.56 314.5 448.56 314.45 448.56C314.31 448.56 314.2 448.45 314.2 448.31C314.18 445.41 314.14 436.96 314.12 434.06C314.12 433.92 314.23 433.81 314.37 433.81C314.42 433.81 314.32 433.81 314.37 433.81C314.51 433.81 314.63 433.92 314.63 434.06C314.64 436.96 314.69 445.4 314.7 448.3Z" id="b3uQEoK5M"></path><path d="M302.74 448.19C302.74 448.33 302.63 448.44 302.49 448.44C302.44 448.44 302.54 448.44 302.49 448.44C302.35 448.44 302.24 448.33 302.24 448.19C302.22 445.29 302.18 436.84 302.16 433.94C302.16 433.8 302.28 433.69 302.41 433.69C302.47 433.69 302.36 433.69 302.41 433.69C302.55 433.69 302.67 433.8 302.67 433.94C302.68 436.84 302.73 445.29 302.74 448.19Z" id="eDI1XkSyU"></path><path d="M326.44 158.13C332.42 158.13 337.27 162.97 337.27 168.95C337.27 173.98 337.27 178.25 337.27 183.28C337.27 189.26 332.42 194.1 326.44 194.1C317.24 194.1 300.46 194.1 291.25 194.1C285.28 194.1 280.43 189.26 280.43 183.28C280.43 178.25 280.43 173.98 280.43 168.95C280.43 162.97 285.28 158.13 291.25 158.13C300.46 158.13 317.24 158.13 326.44 158.13Z" id="a9zXFf0e"></path><path d="M313.29 166.04L313.31 166.05L313.32 166.05L313.34 166.05L313.35 166.05L313.36 166.06L313.38 166.06L313.39 166.06L313.41 166.07L313.42 166.07L313.43 166.08L313.44 166.09L313.46 166.09L313.47 166.1L313.48 166.11L313.49 166.11L313.5 166.12L313.51 166.13L313.52 166.14L313.53 166.15L313.54 166.16L313.55 166.17L313.56 166.18L313.57 166.19L313.58 166.2L313.58 166.21L313.59 166.22L313.6 166.23L313.6 166.24L313.61 166.25L313.61 166.26L313.62 166.28L313.62 166.29L313.63 166.3L313.63 166.31L313.63 166.33L313.63 166.34L313.63 166.35L313.63 166.37L313.63 172.84L321.07 172.84L321.08 172.84L321.1 172.84L321.11 172.84L321.13 172.85L321.14 172.85L321.16 172.85L321.17 172.85L321.18 172.86L321.2 172.86L321.21 172.87L321.22 172.87L321.24 172.88L321.25 172.88L321.26 172.89L321.27 172.9L321.29 172.9L321.3 172.91L321.31 172.92L321.32 172.93L321.33 172.94L321.34 172.95L321.35 172.95L321.36 172.96L321.37 172.97L321.38 172.98L321.38 172.99L321.39 173.01L321.4 173.02L321.4 173.03L321.41 173.04L321.42 173.05L321.42 173.06L321.42 173.08L321.43 173.09L321.43 173.1L321.43 173.11L321.44 173.13L321.44 173.14L321.44 173.15L321.44 173.17L321.44 178.35L321.44 178.36L321.44 178.37L321.44 178.38L321.43 178.4L321.43 178.41L321.43 178.42L321.42 178.44L321.42 178.45L321.42 178.46L321.41 178.47L321.4 178.48L321.4 178.49L321.39 178.51L321.38 178.52L321.38 178.53L321.37 178.54L321.36 178.55L321.35 178.56L321.34 178.57L321.33 178.57L321.32 178.58L321.31 178.59L321.3 178.6L321.29 178.61L321.27 178.61L321.26 178.62L321.25 178.63L321.24 178.63L321.22 178.64L321.21 178.64L321.2 178.65L321.18 178.65L321.17 178.66L321.16 178.66L321.14 178.66L321.13 178.66L321.11 178.67L321.1 178.67L321.08 178.67L321.07 178.67L313.63 178.67L313.63 185.14L313.63 185.16L313.63 185.17L313.63 185.18L313.63 185.2L313.63 185.21L313.62 185.22L313.62 185.23L313.61 185.25L313.61 185.26L313.6 185.27L313.6 185.28L313.59 185.29L313.58 185.3L313.58 185.31L313.57 185.32L313.56 185.34L313.55 185.34L313.54 185.35L313.53 185.36L313.52 185.37L313.51 185.38L313.5 185.39L313.49 185.4L313.48 185.41L313.47 185.41L313.46 185.42L313.44 185.43L313.43 185.43L313.42 185.44L313.41 185.44L313.39 185.45L313.38 185.45L313.36 185.45L313.35 185.46L313.34 185.46L313.32 185.46L313.31 185.47L313.29 185.47L313.28 185.47L313.26 185.47L307.31 185.47L307.3 185.47L307.28 185.47L307.27 185.47L307.25 185.46L307.24 185.46L307.22 185.46L307.21 185.45L307.2 185.45L307.18 185.45L307.17 185.44L307.16 185.44L307.14 185.43L307.13 185.43L307.12 185.42L307.11 185.41L307.09 185.41L307.08 185.4L307.07 185.39L307.06 185.38L307.05 185.37L307.04 185.36L307.03 185.35L307.02 185.34L307.01 185.34L307.01 185.32L307 185.31L306.99 185.3L306.98 185.29L306.98 185.28L306.97 185.27L306.97 185.26L306.96 185.25L306.96 185.23L306.95 185.22L306.95 185.21L306.95 185.2L306.95 185.18L306.94 185.17L306.94 185.16L306.94 185.14L306.94 178.67L299.51 178.67L299.49 178.67L299.48 178.67L299.46 178.67L299.45 178.66L299.43 178.66L299.42 178.66L299.4 178.66L299.39 178.65L299.38 178.65L299.36 178.64L299.35 178.64L299.34 178.63L299.32 178.63L299.31 178.62L299.3 178.61L299.29 178.61L299.28 178.6L299.27 178.59L299.26 178.58L299.25 178.57L299.24 178.57L299.23 178.56L299.22 178.55L299.21 178.54L299.2 178.53L299.19 178.52L299.19 178.51L299.18 178.49L299.17 178.48L299.17 178.47L299.16 178.46L299.16 178.45L299.15 178.44L299.15 178.42L299.14 178.41L299.14 178.4L299.14 178.38L299.14 178.37L299.14 178.36L299.14 178.35L299.14 173.17L299.14 173.15L299.14 173.14L299.14 173.13L299.14 173.11L299.14 173.1L299.15 173.09L299.15 173.08L299.16 173.06L299.16 173.05L299.17 173.04L299.17 173.03L299.18 173.02L299.19 173.01L299.19 172.99L299.2 172.98L299.21 172.97L299.22 172.96L299.23 172.95L299.24 172.95L299.25 172.94L299.26 172.93L299.27 172.92L299.28 172.91L299.29 172.9L299.3 172.9L299.31 172.89L299.32 172.88L299.34 172.88L299.35 172.87L299.36 172.87L299.38 172.86L299.39 172.86L299.4 172.85L299.42 172.85L299.43 172.85L299.45 172.85L299.46 172.84L299.48 172.84L299.49 172.84L299.51 172.84L306.94 172.84L306.94 166.37L306.94 166.35L306.94 166.34L306.95 166.33L306.95 166.31L306.95 166.3L306.95 166.29L306.96 166.28L306.96 166.26L306.97 166.25L306.97 166.24L306.98 166.23L306.98 166.22L306.99 166.21L307 166.2L307.01 166.19L307.01 166.18L307.02 166.17L307.03 166.16L307.04 166.15L307.05 166.14L307.06 166.13L307.07 166.12L307.08 166.11L307.09 166.11L307.11 166.1L307.12 166.09L307.13 166.09L307.14 166.08L307.16 166.07L307.17 166.07L307.18 166.06L307.2 166.06L307.21 166.06L307.22 166.05L307.24 166.05L307.25 166.05L307.27 166.05L307.28 166.04L307.3 166.04L307.31 166.04L313.26 166.04L313.28 166.04L313.29 166.04Z" id="c2mYtD4AG4"></path><path d="M292.8 146.26C291.93 146.26 291.22 146.96 291.22 147.84C291.22 150.47 291.22 156.79 291.22 159.43C291.22 160.3 291.93 161.01 292.8 161.01C294.79 161.01 299.17 161.01 301.15 161.01C302.03 161.01 302.73 160.3 302.73 159.43C302.73 156.79 302.73 150.47 302.73 147.84C302.73 146.96 302.03 146.26 301.15 146.26C299.17 146.26 294.79 146.26 292.8 146.26Z" id="eZG9vgvUc"></path><path d="M326 147.63C325.99 145.6 324.33 143.96 322.3 143.97C316.17 144.01 301.45 144.09 295.32 144.12C293.29 144.13 291.65 145.79 291.66 147.82C291.67 149.38 291.68 150.4 291.69 151.97C291.7 154 293.35 155.64 295.38 155.63C301.52 155.6 316.23 155.52 322.36 155.48C324.39 155.47 326.03 153.82 326.02 151.78C326.01 150.22 326.01 149.2 326 147.63Z" id="bubhJdQ46"></path><path d="M315.71 150.14C314.84 150.17 314.16 150.9 314.19 151.78C314.29 154.41 314.53 160.72 314.62 163.36C314.66 164.23 315.39 164.91 316.26 164.88C318.25 164.8 322.62 164.64 324.61 164.56C325.48 164.53 326.16 163.8 326.13 162.93C326.03 160.29 325.79 153.98 325.69 151.34C325.66 150.47 324.93 149.79 324.05 149.82C322.07 149.9 317.69 150.06 315.71 150.14Z" id="aCbMprWQ"></path><path d="M338.71 295.18C338.71 311.26 325.65 324.32 309.57 324.32C293.49 324.32 280.43 311.26 280.43 295.18C280.43 279.1 293.49 266.04 309.57 266.04C325.65 266.04 338.71 279.1 338.71 295.18Z" id="f3KF3ziCa"></path><path d="M301.1 285.5C303.86 285.83 305.82 288.34 305.49 291.1C305.37 292.1 305.61 290.1 305.49 291.1C305.15 293.86 302.64 295.83 299.88 295.5C294.17 294.8 282.03 293.33 276.31 292.63C273.55 292.3 271.59 289.79 271.92 287.03C272.04 286.03 271.8 288.03 271.92 287.03C272.26 284.26 274.77 282.3 277.53 282.63C283.24 283.33 295.38 284.8 301.1 285.5Z" id="a3HB6wYUaA"></path><path d="M286.85 302.29C289.23 300.86 292.32 301.62 293.76 304.01C294.28 304.87 293.24 303.14 293.76 304.01C295.2 306.39 294.43 309.48 292.05 310.92C287.12 313.89 276.64 320.2 271.71 323.17C269.33 324.61 266.24 323.84 264.8 321.46C264.28 320.6 265.32 322.32 264.8 321.46C263.36 319.08 264.13 315.98 266.51 314.55C271.44 311.58 281.92 305.26 286.85 302.29Z" id="aLz3YzhOV"></path><path d="M297.07 309.22C297.84 306.54 300.63 305 303.3 305.76C304.27 306.04 302.33 305.49 303.3 305.76C305.97 306.53 307.52 309.32 306.75 311.99C305.16 317.53 301.79 329.28 300.2 334.81C299.43 337.49 296.64 339.03 293.97 338.26C293 337.99 294.94 338.54 293.97 338.26C291.29 337.5 289.75 334.71 290.52 332.03C292.11 326.5 295.48 314.75 297.07 309.22Z" id="e4WfcehYVJ"></path><path d="M324.89 339.69C325.72 342.34 324.24 345.17 321.59 345.99C320.62 346.29 322.55 345.69 321.59 345.99C318.93 346.82 316.11 345.34 315.28 342.69C313.56 337.19 309.92 325.52 308.2 320.03C307.37 317.37 308.85 314.55 311.51 313.72C312.47 313.42 310.55 314.02 311.51 313.72C314.16 312.89 316.99 314.37 317.82 317.02C319.53 322.52 323.18 334.19 324.89 339.69Z" id="b5PJpIiKl3"></path><path d="M356.13 293.05C358.89 293.39 360.86 295.9 360.52 298.66C360.4 299.66 360.65 297.66 360.52 298.66C360.19 301.42 357.68 303.39 354.92 303.05C349.2 302.36 337.06 300.88 331.35 300.19C328.59 299.85 326.62 297.34 326.96 294.58C327.08 293.58 326.84 295.58 326.96 294.58C327.29 291.82 329.8 289.85 332.56 290.19C338.28 290.88 350.42 292.36 356.13 293.05Z" id="e1CYak3SIg"></path><path d="M341.84 314.57C344.01 316.31 344.36 319.48 342.62 321.65C341.99 322.43 343.25 320.86 342.62 321.65C340.88 323.82 337.71 324.17 335.54 322.43C331.05 318.83 321.5 311.19 317.01 307.59C314.84 305.85 314.49 302.68 316.23 300.51C316.86 299.73 315.6 301.3 316.23 300.51C317.97 298.34 321.14 297.99 323.31 299.73C327.8 303.33 337.35 310.97 341.84 314.57Z" id="b3fYbrSYQw"></path><path d="M303.3 274.22C304.83 276.55 304.18 279.67 301.85 281.2C301.01 281.75 302.69 280.64 301.85 281.2C299.52 282.72 296.4 282.07 294.88 279.74C291.73 274.92 285.03 264.69 281.88 259.88C280.35 257.55 281 254.43 283.33 252.9C284.17 252.35 282.49 253.46 283.33 252.9C285.66 251.38 288.78 252.03 290.3 254.36C293.45 259.18 300.15 269.41 303.3 274.22Z" id="f3W0HDDN39"></path><path d="M320.06 273.45C319.28 276.12 316.48 277.65 313.81 276.87C312.84 276.59 314.77 277.16 313.81 276.87C311.14 276.09 309.61 273.29 310.39 270.62C312.01 265.1 315.45 253.36 317.07 247.84C317.85 245.17 320.64 243.64 323.31 244.42C324.28 244.71 322.35 244.14 323.31 244.42C325.98 245.2 327.51 248 326.73 250.67C325.11 256.19 321.67 267.93 320.06 273.45Z" id="buXpA4mYX"></path><path d="M324.93 292.86C323.04 294.9 319.86 295.03 317.81 293.14C317.07 292.46 318.56 293.83 317.81 293.14C315.77 291.26 315.64 288.07 317.53 286.03C321.43 281.8 329.73 272.81 333.63 268.58C335.52 266.54 338.7 266.41 340.75 268.3C341.49 268.98 340.01 267.61 340.75 268.3C342.79 270.18 342.92 273.37 341.03 275.41C337.13 279.64 328.83 288.63 324.93 292.86Z" id="a5TWZwxn35"></path><path d="M307.05 280.43C307.05 283.61 304.31 286.19 300.94 286.19C297.56 286.19 294.82 283.61 294.82 280.43C294.82 277.26 297.56 274.68 300.94 274.68C304.31 274.68 307.05 277.26 307.05 280.43Z" id="agwXQG92"></path><path d="M328.56 303.29C328.56 305.23 327.43 306.8 326.04 306.8C324.65 306.8 323.53 305.23 323.53 303.29C323.53 301.36 324.65 299.78 326.04 299.78C327.43 299.78 328.56 301.36 328.56 303.29Z" id="a1G2hVqH8Z"></path><path d="M309.06 314.28C309.06 317.06 306.81 319.32 304.03 319.32C301.25 319.32 298.99 317.06 298.99 314.28C298.99 311.5 301.25 309.25 304.03 309.25C306.81 309.25 309.06 311.5 309.06 314.28Z" id="a13kRbjEiD"></path><path d="M314.17 298.34C314.17 299.54 313.04 300.5 311.65 300.5C310.26 300.5 309.14 299.54 309.14 298.34C309.14 297.15 310.26 296.18 311.65 296.18C313.04 296.18 314.17 297.15 314.17 298.34Z" id="acSOF3JBl"></path><path d="M289.71 300.59C289.71 302.53 288.58 304.1 287.19 304.1C285.8 304.1 284.68 302.53 284.68 300.59C284.68 298.66 285.8 297.09 287.19 297.09C288.58 297.09 289.71 298.66 289.71 300.59Z" id="b1dYVoNpjt"></path><path d="M327.12 285.4C327.12 288.57 324.38 291.15 321.01 291.15C317.63 291.15 314.89 288.57 314.89 285.4C314.89 282.22 317.63 279.64 321.01 279.64C324.38 279.64 327.12 282.22 327.12 285.4Z" id="bzZMqNib"></path></defs><g><g><g><use xlink:href="#b22qnWk8ku" opacity="1" fill="#6271ff" fill-opacity="1"></use></g><g><use xlink:href="#bFTudV82q" opacity="1" fill="#1d1e2f" fill-opacity="1"></use></g><g><g><use xlink:href="#b2GLL3bsvL" opacity="1" fill-opacity="0" stroke="#3b1515" stroke-width="1" stroke-opacity="1"></use></g></g><g><g><use xlink:href="#auPdRfRFl" opacity="1" fill-opacity="0" stroke="#3b1515" stroke-width="1" stroke-opacity="1"></use></g></g><g><g><use xlink:href="#hcJ4G5ATh" opacity="1" fill-opacity="0" stroke="#3b1515" stroke-width="1" stroke-opacity="1"></use></g></g><g><use xlink:href="#a6RO89tWkD" opacity="1" fill="#1d1e2f" fill-opacity="1"></use><g><use xlink:href="#a6RO89tWkD" opacity="1" fill-opacity="0" stroke="#ffffff" stroke-width="4" stroke-opacity="1"></use></g></g><g><use xlink:href="#b7jAoGez2" opacity="1" fill="#1d1e2f" fill-opacity="1"></use><g><use xlink:href="#b7jAoGez2" opacity="1" fill-opacity="0" stroke="#ffffff" stroke-width="4" stroke-opacity="1"></use></g></g><g><use xlink:href="#e3TDxSwkHN" opacity="1" fill="#ffffff" fill-opacity="1"></use></g><g><use xlink:href="#d3IGfgv4t" opacity="1" fill="#ffffff" fill-opacity="1"></use></g><g><use xlink:href="#abaXxPD6y" opacity="1" fill="#ffffff" fill-opacity="1"></use></g><g><use xlink:href="#bkKDWLKZl" opacity="1" fill="#383b57" fill-opacity="1"></use><g><use xlink:href="#bkKDWLKZl" opacity="1" fill-opacity="0" stroke="#6271ff" stroke-width="2" stroke-opacity="1"></use></g></g><g><use xlink:href="#eWLvXh0G7" opacity="1" fill="#383b57" fill-opacity="1"></use><g><use xlink:href="#eWLvXh0G7" opacity="1" fill-opacity="0" stroke="#00ff84" stroke-width="2" stroke-opacity="1"></use></g></g><g><use xlink:href="#a1RoOaktOP" opacity="1" fill="#383b57" fill-opacity="1"></use><g><use xlink:href="#a1RoOaktOP" opacity="1" fill-opacity="0" stroke="#f65d5d" stroke-width="2" stroke-opacity="1"></use></g></g><g><use xlink:href="#e4M07aZOM" opacity="1" fill="#ffffff" fill-opacity="1"></use></g><g><use xlink:href="#a5TZbWZqU" opacity="1" fill="#ffffff" fill-opacity="1"></use></g><g><use xlink:href="#b56fswfCVA" opacity="1" fill="#1a1a39" fill-opacity="1"></use></g><g><use xlink:href="#f2CBJ8rBPR" opacity="1" fill="#1a1a39" fill-opacity="1"></use></g><g><use xlink:href="#d4MvzdnuVi" opacity="1" fill="#1a1a39" fill-opacity="1"></use></g><g><use xlink:href="#g4EtzC9rG" opacity="1" fill="#1a1a39" fill-opacity="1"></use></g><g><use xlink:href="#b3uQEoK5M" opacity="1" fill="#1a1a39" fill-opacity="1"></use></g><g><use xlink:href="#eDI1XkSyU" opacity="1" fill="#1a1a39" fill-opacity="1"></use></g><g><use xlink:href="#a9zXFf0e" opacity="1" fill="#ffffff" fill-opacity="1"></use></g><g><use xlink:href="#c2mYtD4AG4" opacity="1" fill="#f65d5d" fill-opacity="1"></use></g><g><use xlink:href="#eZG9vgvUc" opacity="1" fill="#ffffff" fill-opacity="1"></use></g><g><use xlink:href="#bubhJdQ46" opacity="1" fill="#ffffff" fill-opacity="1"></use></g><g><use xlink:href="#aCbMprWQ" opacity="1" fill="#ffffff" fill-opacity="1"></use></g><g><use xlink:href="#f3KF3ziCa" opacity="1" fill="#f14144" fill-opacity="1"></use></g><g><use xlink:href="#a3HB6wYUaA" opacity="1" fill="#f14144" fill-opacity="1"></use></g><g><use xlink:href="#aLz3YzhOV" opacity="1" fill="#f14144" fill-opacity="1"></use></g><g><use xlink:href="#e4WfcehYVJ" opacity="1" fill="#f14144" fill-opacity="1"></use></g><g><use xlink:href="#b5PJpIiKl3" opacity="1" fill="#f14144" fill-opacity="1"></use></g><g><use xlink:href="#e1CYak3SIg" opacity="1" fill="#f14144" fill-opacity="1"></use></g><g><use xlink:href="#b3fYbrSYQw" opacity="1" fill="#f14144" fill-opacity="1"></use></g><g><use xlink:href="#f3W0HDDN39" opacity="1" fill="#f14144" fill-opacity="1"></use></g><g><use xlink:href="#buXpA4mYX" opacity="1" fill="#f14144" fill-opacity="1"></use></g><g><use xlink:href="#a5TWZwxn35" opacity="1" fill="#f14144" fill-opacity="1"></use></g><g><use xlink:href="#agwXQG92" opacity="1" fill="#00ff84" fill-opacity="1"></use></g><g><use xlink:href="#a1G2hVqH8Z" opacity="1" fill="#00ff84" fill-opacity="1"></use></g><g><use xlink:href="#a13kRbjEiD" opacity="1" fill="#00ff84" fill-opacity="1"></use></g><g><use xlink:href="#acSOF3JBl" opacity="1" fill="#00ff84" fill-opacity="1"></use></g><g><use xlink:href="#b1dYVoNpjt" opacity="1" fill="#00ff84" fill-opacity="1"></use></g><g><use xlink:href="#bzZMqNib" opacity="1" fill="#00ff84" fill-opacity="1"></use></g></g></g></svg>